HIERARCHY
ROOT Hips
{
	OFFSET 0.000000 0.000000 0.000000
	CHANNELS 6 Xposition Yposition Zposition Xrotation Yrotation Zrotation
	JOINT LeftUpLeg_virtual
	{
		OFFSET 0.000000 0.000000 0.000000
		CHANNELS 3 Xrotation Yrotation Zrotation
		JOINT LeftUpLeg
		{
			OFFSET 15.427100 -6.655098 0.678600
			CHANNELS 3 Xrotation Yrotation Zrotation
			JOINT LeftLeg
			{
				OFFSET 4.081073 -39.591068 13.024000
				CHANNELS 3 Xrotation Yrotation Zrotation
				JOINT LeftFoot
				{
					OFFSET -4.081074 -37.707932 -15.979700
					CHANNELS 3 Xrotation Yrotation Zrotation
					JOINT LeftToeBase
					{
						OFFSET 5.346399 -15.068900 20.645000
						CHANNELS 3 Xrotation Yrotation Zrotation
						JOINT LeftToe_End
						{
							OFFSET 2.754700 0.931300 11.300900
							CHANNELS 3 Xrotation Yrotation Zrotation
							End Site
							{
								OFFSET 0 0 0
							}
						}
					}
				}
			}
		}
	}
	JOINT RightUpLeg_virtual
	{
		OFFSET 0.000000 0.000000 0.000000
		CHANNELS 3 Xrotation Yrotation Zrotation
		JOINT RightUpLeg
		{
			OFFSET -15.569500 -6.655098 0.678600
			CHANNELS 3 Xrotation Yrotation Zrotation
			JOINT RightLeg
			{
				OFFSET -4.081825 -39.591045 13.023800
				CHANNELS 3 Xrotation Yrotation Zrotation
				JOINT RightFoot
				{
					OFFSET 4.081824 -37.707954 -15.979600
					CHANNELS 3 Xrotation Yrotation Zrotation
					JOINT RightToeBase
					{
						OFFSET -5.346400 -15.068900 20.645000
						CHANNELS 3 Xrotation Yrotation Zrotation
						JOINT RightToe_End
						{
							OFFSET -2.754700 0.931300 11.300900
							CHANNELS 3 Xrotation Yrotation Zrotation
							End Site
							{
								OFFSET 0 0 0
							}
						}
					}
				}
			}
		}
	}
	JOINT Spine_virtual
	{
		OFFSET 0.000000 0.000000 0.000000
		CHANNELS 3 Xrotation Yrotation Zrotation
		JOINT Spine
		{
			OFFSET -0.279200 12.230698 -2.892100
			CHANNELS 3 Xrotation Yrotation Zrotation
			JOINT Spine1
			{
				OFFSET -0.232667 10.192268 -1.242267
				CHANNELS 3 Xrotation Yrotation Zrotation
				JOINT Spine1_split
				{
					OFFSET -0.232667 10.192268 -1.242267
					CHANNELS 3 Xrotation Yrotation Zrotation
					JOINT Spine2
					{
						OFFSET -0.232667 10.192268 -1.242267
						CHANNELS 3 Xrotation Yrotation Zrotation
						JOINT Neck_virtual
						{
							OFFSET 0.000000 0.000000 0.000000
							CHANNELS 3 Xrotation Yrotation Zrotation
							JOINT Neck
							{
								OFFSET -0.418800 17.814194 8.416900
								CHANNELS 3 Xrotation Yrotation Zrotation
								JOINT Head
								{
									OFFSET 0.000000 7.031097 3.806800
									CHANNELS 3 Xrotation Yrotation Zrotation
									JOINT HeadTop_End
									{
										OFFSET 0.000000 24.646606 12.978600
										CHANNELS 3 Xrotation Yrotation Zrotation
										End Site
										{
											OFFSET 0 0 0
										}
									}
								}
							}
						}
						JOINT LeftShoulder_virtual
						{
							OFFSET 0.000000 0.000000 0.000000
							CHANNELS 3 Xrotation Yrotation Zrotation
							JOINT LeftShoulder
							{
								OFFSET 8.476499 7.247704 -3.868750
								CHANNELS 3 Xrotation Yrotation Zrotation
								JOINT LeftShoulder_split
								{
									OFFSET 8.476499 7.247704 -3.868750
									CHANNELS 3 Xrotation Yrotation Zrotation
									JOINT LeftArm
									{
										OFFSET 9.308998 -2.777710 0.208600
										CHANNELS 3 Xrotation Yrotation Zrotation
										JOINT LeftForeArm
										{
											OFFSET 29.972298 0.000000 0.000000
											CHANNELS 3 Xrotation Yrotation Zrotation
											JOINT LeftHand
											{
												OFFSET 26.026505 0.000000 0.000000
												CHANNELS 3 Xrotation Yrotation Zrotation
												End Site
												{
													OFFSET 0 0 0
												}
											}
										}
									}
								}
							}
						}
						JOINT RightShoulder_virtual
						{
							OFFSET 0.000000 0.000000 0.000000
							CHANNELS 3 Xrotation Yrotation Zrotation
							JOINT RightShoulder
							{
								OFFSET -7.570500 7.247704 -3.868750
								CHANNELS 3 Xrotation Yrotation Zrotation
								JOINT RightShoulder_split
								{
									OFFSET -7.570500 7.247704 -3.868750
									CHANNELS 3 Xrotation Yrotation Zrotation
									JOINT RightArm
									{
										OFFSET -9.308998 -2.777710 0.208500
										CHANNELS 3 Xrotation Yrotation Zrotation
										JOINT RightForeArm
										{
											OFFSET -29.972300 0.000000 0.000000
											CHANNELS 3 Xrotation Yrotation Zrotation
											JOINT RightHand
											{
												OFFSET -26.026505 0.000000 0.000000
												CHANNELS 3 Xrotation Yrotation Zrotation
												End Site
												{
													OFFSET 0 0 0
												}
											}
										}
									}
								}
							}
						}
					}
				}
			}
		}
	}
}
MOTION
Frames: 8
Frame Time: 0.03333333
13.962187 86.621948 -2.573673 0.000000 0.000000 0.000000 2.763348 -44.923489 3.206429 -15.943098 14.223634 7.135197 33.487560 19.024846 2.540885 -9.397631 16.818026 -16.998464 -1.605233 -0.659549 -2.144590 0.000000 0.000000 0.000000 2.665653 -44.749784 3.445495 -20.528149 -37.499467 -20.940429 30.515806 -7.280518 -5.391058 -14.560368 -4.522267 10.245385 -7.913190 2.400093 4.418787 0.000000 0.000000 0.000000 4.070255 -42.508157 3.431054 10.873050 -7.361131 2.172591 2.955664 -2.122350 -1.956800 -0.253212 -0.149479 0.814177 0.000000 0.000000 0.000000 -7.768529 -3.937541 -0.802550 -9.557757 -4.970865 -4.967077 10.416559 -22.517098 8.072252 0.000000 0.000000 0.000000 -8.826445 -3.970747 -1.168692 -0.895886 2.436043 -6.661720 1.059251 -2.518145 1.555257 9.465743 5.275353 -58.843692 -0.892904 -46.296129 0.194481 0.000000 0.000000 0.000000 -8.949507 -4.336774 -1.172022 -1.038208 -1.199944 5.969263 -3.038559 -3.982881 -2.148446 7.603708 18.290406 71.630188 0.261860 49.723818 1.364457 0.000000 0.000000 0.000000 
13.590485 86.566475 -3.085499 0.000000 0.000000 0.000000 1.802251 -48.388325 2.928621 -14.821389 14.727597 7.776366 34.544836 19.779673 2.073521 -9.251376 17.554174 -16.952919 -1.557459 -0.320915 -2.752269 0.000000 0.000000 0.000000 1.912105 -48.182026 3.191756 -19.139720 -37.782066 -20.687600 29.080077 -8.178005 -5.586428 -14.934038 -5.917494 10.885465 -7.436789 2.512880 3.535067 0.000000 0.000000 0.000000 3.240452 -45.830843 3.185562 10.851123 -7.282895 2.095200 2.697592 -1.914833 -1.778185 -0.259996 -0.323829 0.908150 0.000000 0.000000 0.000000 -7.969099 -3.778199 -0.614469 -9.223937 -4.046930 -5.130861 10.734301 -20.726564 7.592804 0.000000 0.000000 0.000000 -9.060228 -3.771557 -0.998230 -0.827818 2.235374 -6.587168 1.043014 -2.925518 1.709617 8.946693 4.924118 -58.326271 -1.042747 -45.555265 0.166728 0.000000 0.000000 0.000000 -9.152916 -4.155357 -1.018717 -1.262702 -0.433635 5.869677 -3.028214 -3.973031 -2.256915 7.154969 16.943905 71.903287 0.144693 48.211392 1.449819 0.000000 0.000000 0.000000 
13.070491 86.452789 -3.696507 0.000000 0.000000 0.000000 0.776928 -51.646277 2.254864 -14.545608 15.484343 9.068550 35.960294 20.381754 1.597220 -8.603411 17.854106 -16.599513 -1.730659 -0.055404 -3.598212 0.000000 0.000000 0.000000 0.846719 -51.195915 2.433573 -18.133411 -37.717302 -20.128014 27.621292 -8.579230 -5.568797 -14.924863 -6.525181 11.637590 -8.058356 2.621658 2.724757 0.000000 0.000000 0.000000 2.425975 -48.865082 2.678395 10.889767 -6.867028 1.989499 2.489659 -1.789437 -1.533284 -0.215315 -0.515713 0.983605 0.000000 0.000000 0.000000 -8.124215 -3.671072 -0.371005 -8.924930 -3.315190 -5.250533 10.982026 -19.252978 7.074913 0.000000 0.000000 0.000000 -9.227578 -3.650375 -0.755964 -0.782131 1.996501 -6.465387 1.049165 -3.145176 1.714168 8.254119 4.369351 -58.027293 -1.048010 -44.917872 0.270615 0.000000 0.000000 0.000000 -9.328285 -4.036955 -0.790931 -1.453989 0.171985 5.755575 -2.909388 -3.934437 -2.404877 6.599099 15.370075 72.073126 0.049444 46.203102 1.528686 0.000000 0.000000 0.000000 
12.448078 86.351044 -4.262341 0.000000 0.000000 0.000000 -0.269443 -54.474631 1.239167 -15.181924 16.321975 10.887630 37.353147 20.602497 1.328212 -7.324586 17.455134 -16.134076 -2.687986 0.109958 -4.389164 0.000000 0.000000 0.000000 -0.357774 -53.826484 1.270920 -17.244824 -37.309280 -19.222569 26.185496 -8.531416 -5.429199 -14.785922 -6.469226 12.571560 -9.459029 2.708375 2.073519 0.000000 0.000000 0.000000 1.709643 -51.607376 1.984237 10.968957 -6.183467 1.875543 2.332319 -1.753185 -1.229148 -0.103874 -0.778900 0.971046 0.000000 0.000000 0.000000 -8.224793 -3.630299 -0.074878 -8.674754 -2.769683 -5.352073 11.132530 -18.075005 6.557652 0.000000 0.000000 0.000000 -9.328794 -3.617245 -0.451181 -0.760972 1.712250 -6.337611 1.110997 -3.066883 1.641124 7.503766 3.562240 -57.856121 -0.977300 -44.381811 0.430688 0.000000 0.000000 0.000000 -9.475819 -3.996615 -0.484839 -1.603958 0.606359 5.627981 -2.707436 -3.738956 -2.587652 6.036455 13.617528 72.149535 0.008419 43.831489 1.577427 0.000000 0.000000 0.000000 
11.789165 86.325821 -4.759506 0.000000 0.000000 0.000000 -1.249985 -56.810925 0.021094 -16.486905 17.031029 12.928209 38.214058 20.138085 1.427321 -5.750129 16.277186 -15.657430 -4.563842 0.170250 -4.873737 0.000000 0.000000 0.000000 -1.457959 -56.171360 -0.036487 -15.952641 -36.612000 -17.779486 24.797647 -8.490255 -5.252189 -15.033245 -6.278451 12.918470 -10.465708 2.742306 1.704588 0.000000 0.000000 0.000000 1.243072 -54.154261 1.295652 11.055370 -5.321549 1.745720 2.207310 -1.775037 -0.882704 0.013738 -1.047307 0.893169 0.000000 0.000000 0.000000 -8.294320 -3.637664 0.262336 -8.442758 -2.399183 -5.506017 11.209066 -17.171121 6.078524 0.000000 0.000000 0.000000 -9.370807 -3.654696 -0.103709 -0.767627 1.439876 -6.244685 1.227632 -2.641849 1.449376 6.790995 2.449339 -57.734742 -0.904072 -43.860852 0.574942 0.000000 0.000000 0.000000 -9.588327 -4.017985 -0.122786 -1.696983 0.877067 5.507619 -2.508020 -3.404514 -2.789446 5.561232 11.734812 72.160375 0.039875 41.218764 1.584148 0.000000 0.000000 0.000000 
11.077471 86.420753 -5.121284 0.000000 0.000000 0.000000 -1.890586 -58.677472 -1.074901 -18.231831 17.675013 14.870532 38.295648 19.109131 1.716673 -4.850651 14.522785 -14.613092 -6.397489 0.087727 -5.075786 0.000000 0.000000 0.000000 -2.408349 -58.266732 -1.294131 -14.138932 -35.550639 -15.903764 23.431295 -8.710159 -5.063769 -15.872424 -6.271557 12.308834 -10.164959 2.717167 1.646334 0.000000 0.000000 0.000000 1.089337 -56.525969 0.783234 11.120229 -4.362252 1.619051 2.099224 -1.823145 -0.525023 0.080400 -1.199156 0.818007 0.000000 0.000000 0.000000 -8.348048 -3.661781 0.610496 -8.213174 -2.172178 -5.747369 11.245907 -16.490407 5.671441 0.000000 0.000000 0.000000 -9.387560 -3.719261 0.259328 -0.801787 1.244950 -6.189107 1.451790 -1.974865 1.253441 6.285129 1.005651 -57.601929 -0.906245 -43.377831 0.640603 0.000000 0.000000 0.000000 -9.670340 -4.065713 0.262042 -1.739544 0.988139 5.381209 -2.343050 -2.938775 -2.986795 5.196542 9.787461 72.074369 0.116214 38.490995 1.555208 0.000000 0.000000 0.000000 
10.323619 86.644386 -5.383064 0.000000 0.000000 0.000000 -2.158495 -60.177115 -1.863263 -20.303651 18.105921 16.515910 37.856822 17.514552 1.978281 -4.535562 12.317372 -13.225122 -7.224444 -0.141840 -5.013155 0.000000 0.000000 0.000000 -3.055865 -60.283359 -2.248521 -12.112902 -33.916780 -13.897538 22.185149 -9.119523 -4.887956 -16.979126 -6.563489 11.163916 -9.193150 2.623953 1.843494 0.000000 0.000000 0.000000 1.295720 -58.760903 0.589820 11.177471 -3.367604 1.497703 1.999310 -1.832557 -0.191732 0.082866 -1.291026 0.699298 0.000000 0.000000 0.000000 -8.411802 -3.646780 0.937232 -7.985682 -2.053649 -6.121161 11.280971 -15.975978 5.358661 0.000000 0.000000 0.000000 -9.397644 -3.748223 0.603093 -0.861936 1.156149 -6.173655 1.655095 -1.199029 1.032864 6.020882 -0.721894 -57.447949 -1.014251 -42.928104 0.607282 0.000000 0.000000 0.000000 -9.729914 -4.076454 0.632294 -1.736046 0.980227 5.254037 -2.261904 -2.488448 -3.145102 4.949997 7.888336 71.840114 0.213015 35.799576 1.505023 0.000000 0.000000 0.000000 
9.525486 86.954514 -5.539227 0.000000 0.000000 0.000000 -1.997753 -61.675488 -2.200161 -22.669350 18.153746 17.837010 37.493446 15.316808 1.954596 -4.082981 9.823293 -11.913159 -6.845296 -0.493813 -4.660391 0.000000 0.000000 0.000000 -3.411290 -62.338016 -2.810748 -10.240340 -31.689195 -12.115088 21.170084 -9.498429 -4.749823 -17.693385 -7.055768 10.224817 -8.420133 2.487950 2.150472 0.000000 0.000000 0.000000 1.737334 -60.929092 0.734448 11.246405 -2.383420 1.379132 1.910906 -1.750208 0.082415 0.078633 -1.280387 0.633220 0.000000 0.000000 0.000000 -8.498829 -3.537409 1.211587 -7.746044 -2.002340 -6.616639 11.344267 -15.597599 5.162806 0.000000 0.000000 0.000000 -9.420872 -3.680551 0.896430 -0.943272 1.177734 -6.172329 1.824002 -0.402250 0.822287 6.008919 -2.591068 -57.318094 -1.210828 -42.573034 0.494239 0.000000 0.000000 0.000000 -9.773905 -3.990278 0.948981 -1.692235 0.886627 5.155030 -2.207972 -2.088574 -3.298582 4.794818 6.130388 71.445882 0.323622 33.275145 1.449598 0.000000 0.000000 0.000000 
